# xmcd
#
# Track frame offsets: 
#        150
#        18857
#        37739
#        51451
#        73614
#        91719
#        104185
#        123323
#        135113
#        156915
#        169756
#        182245
#        193909
#        214490
#        228923
#
# Disc length: 3308 seconds
#
# Revision: 0
# Processed by: cddbd v1.5.2PL0 Copyright (c) Steve Scherf et al.
# Submitted via: ExactAudioCopy v1.3
#
DISCID=ce0cea0f
DTITLE=Pistol Pete - Evolution Blues
DYEAR=2008
DGENRE=Blues
TTITLE0=Center Of Attraction
TTITLE1=Voodoo Chile
TTITLE2=Big Leg Woman
TTITLE3=Tin Pan Alley
TTITLE4=Born Under A Bad Sign
TTITLE5=Pass Meets Wes
TTITLE6=Standing Out In The Rain
TTITLE7=Big Butt Girl
TTITLE8=I Love You
TTITLE9=Look Over Yonder
TTITLE10=The Wind Cries Mary
TTITLE11=Garcia
TTITLE12=Hoochie Coochie Man
TTITLE13=Fly Like An Eagle
TTITLE14=Shoulda Known Better
EXTD=
EXTT0=
EXTT1=
EXTT2=
EXTT3=
EXTT4=
EXTT5=
EXTT6=
EXTT7=
EXTT8=
EXTT9=
EXTT10=
EXTT11=
EXTT12=
EXTT13=
EXTT14=
PLAYORDER=
